<svg width="54" height="1100" viewBox="0 0 54 1100" fill="none" xmlns="http://www.w3.org/2000/svg">
<path d="M15.75 20.2266V21.0352C15.75 23.8242 16.3008 26.3789 17.4023 28.6992C18.5039 30.9961 20.0391 32.8125 22.0078 34.1484C23.9766 35.4844 26.2266 36.1523 28.7578 36.1523C31.0312 36.1523 33.0352 35.7422 34.7695 34.9219C36.5039 34.0781 38.0508 32.7539 39.4102 30.9492L42.082 32.9531C40.6992 34.9922 38.8945 36.6328 36.668 37.875C34.4648 39.0938 31.7695 39.7031 28.582 39.7031C25.3242 39.7031 22.3945 38.9062 19.793 37.3125C17.2148 35.7188 15.1875 33.5039 13.7109 30.668C12.2578 27.832 11.5312 24.6211 11.5312 21.0352V19.5234C11.5312 15.7266 12.2695 12.3633 13.7461 9.43359C15.2461 6.50391 17.2383 4.24219 19.7227 2.64844C22.2305 1.05469 24.9375 0.257812 27.8438 0.257812C30.9844 0.257812 33.6914 0.996094 35.9648 2.47266C38.2383 3.94922 39.9609 6 41.1328 8.625C42.3047 11.25 42.8906 14.2617 42.8906 17.6602V20.2266H15.75ZM27.8438 3.84375C25.7344 3.84375 23.8242 4.37109 22.1133 5.42578C20.4258 6.48047 19.043 7.98047 17.9648 9.92578C16.8867 11.8477 16.207 14.0859 15.9258 16.6406H38.6719V16.1836C38.625 13.9805 38.1797 11.9414 37.3359 10.0664C36.5156 8.19141 35.2969 6.69141 33.6797 5.56641C32.0625 4.41797 30.1172 3.84375 27.8438 3.84375ZM41.2734 106.258C45.3516 106.258 48.4453 107.383 50.5547 109.633C52.6641 111.883 53.7188 115.41 53.7188 120.215V145H49.5352V120.18C49.5352 116.406 48.7383 113.746 47.1445 112.199C45.5742 110.652 43.3242 109.879 40.3945 109.879C38.1445 109.879 36.1875 110.383 34.5234 111.391C32.8828 112.375 31.6055 113.629 30.6914 115.152C29.7773 116.676 29.25 118.234 29.1094 119.828V145H24.8906V119.828C24.8906 116.242 24.082 113.688 22.4648 112.164C20.8711 110.641 18.5977 109.879 15.6445 109.879C12.6914 109.879 10.3008 110.723 8.47266 112.41C6.66797 114.098 5.36719 116.242 4.57031 118.844V145H0.351562V106.961H4.42969L4.53516 113.113C5.84766 110.957 7.54688 109.281 9.63281 108.086C11.7422 106.867 14.1562 106.258 16.875 106.258C19.7578 106.258 22.1719 106.855 24.1172 108.051C26.0625 109.246 27.4453 111.098 28.2656 113.605C29.5312 111.379 31.2773 109.598 33.5039 108.262C35.7539 106.926 38.3438 106.258 41.2734 106.258ZM27.0352 199.109C27.9258 199.109 28.6289 199.379 29.1445 199.918C29.6836 200.457 29.9531 201.137 29.9531 201.957C29.9531 202.754 29.6836 203.422 29.1445 203.961C28.6289 204.477 27.9258 204.734 27.0352 204.734C26.168 204.734 25.4648 204.477 24.9258 203.961C24.4102 203.422 24.1523 202.754 24.1523 201.957C24.1523 201.137 24.4102 200.457 24.9258 199.918C25.4648 199.379 26.168 199.109 27.0352 199.109ZM24.9258 251V212.961H29.1094V251H24.9258ZM24.9258 357V303H29.1094V357H24.9258ZM43.0664 424.961L26.9648 469.117C26.3555 470.758 25.6641 472.223 24.8906 473.512C24.1406 474.801 23.0508 475.926 21.6211 476.887C20.2148 477.871 18.4453 478.363 16.3125 478.363C15.8672 478.363 15.293 478.316 14.5898 478.223C13.9102 478.129 13.4062 478.023 13.0781 477.906V474.391C13.3125 474.461 13.6523 474.52 14.0977 474.566C14.5664 474.613 14.9414 474.637 15.2227 474.637C17.4258 474.637 19.1484 474.074 20.3906 472.949C21.6562 471.848 22.6992 470.113 23.5195 467.746L25.3828 462.684L11.0391 424.961H15.6094L27.457 456.918L38.5312 424.961H43.0664ZM26.8594 657.281C23.8594 656.648 21.3984 655.898 19.4766 655.031C17.5781 654.164 16.125 653.051 15.1172 651.691C14.1094 650.332 13.6055 648.633 13.6055 646.594C13.6055 644.695 14.1562 642.961 15.2578 641.391C16.3594 639.82 17.918 638.578 19.9336 637.664C21.9727 636.727 24.3281 636.258 27 636.258C29.8828 636.258 32.3789 636.75 34.4883 637.734C36.6211 638.695 38.25 640.043 39.375 641.777C40.5 643.488 41.0625 645.434 41.0625 647.613H36.8086C36.8086 646.277 36.4219 645.012 35.6484 643.816C34.875 642.621 33.7383 641.66 32.2383 640.934C30.7617 640.207 29.0156 639.844 27 639.844C24.9141 639.844 23.1797 640.16 21.7969 640.793C20.4375 641.426 19.4297 642.246 18.7734 643.254C18.1172 644.262 17.7891 645.328 17.7891 646.453C17.7891 647.672 18.0469 648.703 18.5625 649.547C19.1016 650.391 20.1094 651.164 21.5859 651.867C23.0625 652.57 25.1836 653.238 27.9492 653.871C31.0898 654.598 33.6211 655.453 35.543 656.438C37.4883 657.398 38.9297 658.582 39.8672 659.988C40.8047 661.371 41.2734 663.07 41.2734 665.086C41.2734 667.148 40.6875 668.988 39.5156 670.605C38.3672 672.223 36.7266 673.477 34.5938 674.367C32.4844 675.258 30.0352 675.703 27.2461 675.703C24.1523 675.703 21.4805 675.188 19.2305 674.156C16.9805 673.102 15.2695 671.707 14.0977 669.973C12.9258 668.215 12.3398 666.328 12.3398 664.312H16.5234C16.7109 667.055 17.8359 669.047 19.8984 670.289C21.9844 671.508 24.4336 672.117 27.2461 672.117C29.3086 672.117 31.0781 671.801 32.5547 671.168C34.0312 670.535 35.1445 669.703 35.8945 668.672C36.668 667.641 37.0547 666.516 37.0547 665.297C37.0547 663.492 36.3281 661.91 34.875 660.551C33.4219 659.191 30.75 658.102 26.8594 657.281ZM42.6094 769.223C42.4922 771.59 41.7656 773.734 40.4297 775.656C39.0938 777.555 37.3242 779.043 35.1211 780.121C32.9414 781.176 30.5742 781.703 28.0195 781.703C24.5508 781.703 21.5977 780.883 19.1602 779.242C16.7227 777.578 14.8828 775.316 13.6406 772.457C12.3984 769.598 11.7773 766.352 11.7773 762.719V761.242C11.7773 757.633 12.3984 754.398 13.6406 751.539C14.8828 748.656 16.7227 746.395 19.1602 744.754C21.5977 743.09 24.5273 742.258 27.9492 742.258C30.668 742.258 33.1172 742.809 35.2969 743.91C37.4766 745.012 39.2109 746.594 40.5 748.656C41.7891 750.695 42.4922 753.062 42.6094 755.758H38.6016C38.4844 753.742 37.9453 751.996 36.9844 750.52C36.0469 749.02 34.7812 747.871 33.1875 747.074C31.6172 746.254 29.8711 745.844 27.9492 745.844C25.207 745.844 22.9336 746.547 21.1289 747.953C19.3477 749.336 18.0352 751.188 17.1914 753.508C16.3711 755.828 15.9609 758.406 15.9609 761.242V762.719C15.9609 765.578 16.3711 768.168 17.1914 770.488C18.0117 772.785 19.3242 774.637 21.1289 776.043C22.9336 777.426 25.2305 778.117 28.0195 778.117C29.8242 778.117 31.5 777.777 33.0469 777.098C34.6172 776.395 35.8945 775.375 36.8789 774.039C37.8867 772.703 38.4609 771.098 38.6016 769.223H42.6094ZM10.0195 867.418C10.0195 863.738 10.7227 860.445 12.1289 857.539C13.5352 854.633 15.5156 852.359 18.0703 850.719C20.6484 849.078 23.6133 848.258 26.9648 848.258C30.3398 848.258 33.3164 849.078 35.8945 850.719C38.4727 852.359 40.4648 854.633 41.8711 857.539C43.2773 860.445 43.9805 863.738 43.9805 867.418V868.543C43.9805 872.223 43.2773 875.516 41.8711 878.422C40.4648 881.328 38.4844 883.602 35.9297 885.242C33.375 886.883 30.4102 887.703 27.0352 887.703C23.6602 887.703 20.6836 886.883 18.1055 885.242C15.5273 883.602 13.5352 881.328 12.1289 878.422C10.7227 875.516 10.0195 872.223 10.0195 868.543V867.418ZM14.2383 868.543C14.2383 871.379 14.7305 873.98 15.7148 876.348C16.7227 878.715 18.1875 880.602 20.1094 882.008C22.0547 883.414 24.3633 884.117 27.0352 884.117C29.6836 884.117 31.9688 883.414 33.8906 882.008C35.8125 880.602 37.2656 878.715 38.25 876.348C39.2578 873.98 39.7617 871.379 39.7617 868.543V867.418C39.7617 864.629 39.2578 862.051 38.25 859.684C37.2422 857.316 35.7656 855.418 33.8203 853.988C31.8984 852.559 29.6133 851.844 26.9648 851.844C24.3164 851.844 22.0312 852.559 20.1094 853.988C18.1875 855.418 16.7227 857.316 15.7148 859.684C14.7305 862.051 14.2383 864.629 14.2383 867.418V868.543ZM36 993.141C35.5078 993.305 34.8398 993.434 33.9961 993.527C33.1758 993.645 32.3438 993.703 31.5 993.703C28.875 993.703 26.8359 992.941 25.3828 991.418C23.9297 989.895 23.2031 987.328 23.2031 983.719V958.406H16.2422V954.961H23.2031V945.188H27.457V954.961H35.2969V958.406H27.457V983.719C27.457 986.156 27.8906 987.82 28.7578 988.711C29.6484 989.578 30.8555 990.012 32.3789 990.012C33.2227 990.012 34.3711 989.883 35.8242 989.625L36 993.141ZM36 1099.14C35.5078 1099.3 34.8398 1099.43 33.9961 1099.53C33.1758 1099.64 32.3438 1099.7 31.5 1099.7C28.875 1099.7 26.8359 1098.94 25.3828 1097.42C23.9297 1095.89 23.2031 1093.33 23.2031 1089.72V1064.41H16.2422V1060.96H23.2031V1051.19H27.457V1060.96H35.2969V1064.41H27.457V1089.72C27.457 1092.16 27.8906 1093.82 28.7578 1094.71C29.6484 1095.58 30.8555 1096.01 32.3789 1096.01C33.2227 1096.01 34.3711 1095.88 35.8242 1095.62L36 1099.14Z" fill="#798885" fill-opacity="0.38"/>
</svg>
